<?xml version="1.0" encoding="utf-8"?>

<!-- Uploaded to: SVG Repo, www.svgrepo.com, Generator: SVG Repo Mixer Tools -->
<svg height="800px" width="800px" version="1.1" id="_x32_" xmlns="http://www.w3.org/2000/svg" xmlns:xlink="http://www.w3.org/1999/xlink" 
	 viewBox="0 0 512 512"  xml:space="preserve">
<style type="text/css">
	.st0{fill:#ffffff;}
</style>
<g>
	<path class="st0" d="M218.693,415.537c-1.188-0.834-2.855-1.95-3.183-2.212c-6.025-4.897-9.143-7.279-14.709-15.589
		c-14.381-21.482-12.497-55.048-1.497-81.472c0.276-0.664,0.23-0.538,0.085-0.178c12.628-25.893,12.392-49.167,0.814-63.147
		c-18.784-22.69-61.02-18.726-94.336,8.854c-30.921,25.598-43.28,62.543-29.884,85.869c0.821,1.76,2.002,3.486,3.577,5.166
		c0.873,1.05,1.799,2.041,2.764,2.979c18.673,20.36,30.191,38.961,39.617,56.466c17.32,32.2,23.215,49.515,27.448,63.77
		c0.124,0.44,0.262,0.84,0.394,1.221c8.539,25.946,36.243,40.496,62.537,32.574c26.706-8.053,41.828-36.23,33.788-62.93
		C241.737,432.425,231.393,422.763,218.693,415.537z"/>
	<path class="st0" d="M198.595,225.4c15.804-4.765,24.758-21.436,19.999-37.248c-4.772-15.798-21.436-24.75-37.248-19.999
		c-15.805,4.765-24.757,21.437-19.993,37.248C166.119,221.199,182.79,230.152,198.595,225.4z"/>
	<path class="st0" d="M131.267,229.482c11.906-3.59,18.646-16.146,15.063-28.052c-3.584-11.899-16.146-18.64-28.052-15.056
		c-11.9,3.584-18.647,16.14-15.057,28.052C106.811,226.325,119.368,233.066,131.267,229.482z"/>
	<path class="st0" d="M84.733,255.356c11.21-3.374,17.557-15.195,14.176-26.399c-3.38-11.204-15.201-17.55-26.398-14.17
		c-11.211,3.367-17.557,15.188-14.177,26.392C61.714,252.376,73.535,258.729,84.733,255.356z"/>
	<path class="st0" d="M43.316,259.53c-10.002,3.019-15.673,13.566-12.654,23.576c3.013,10.002,13.567,15.666,23.57,12.654
		c10.003-3.019,15.674-13.574,12.654-23.563C63.88,262.182,53.319,256.524,43.316,259.53z"/>
	<path class="st0" d="M405.646,92.116c-34.202-26.471-76.549-29.044-94.58-5.743c-11.105,14.341-10.58,37.616,2.894,63.088
		c-0.157-0.354-0.21-0.486,0.086,0.164c11.873,26.057,14.846,59.537,1.182,81.479c-5.284,8.493-8.33,10.967-14.184,16.06
		c-0.321,0.282-1.949,1.444-3.111,2.317c-12.451,7.646-22.48,17.636-26.365,32.253c-7.167,26.963,8.88,54.621,35.836,61.788
		c26.536,7.049,53.748-8.401,61.421-34.609c0.131-0.38,0.242-0.788,0.361-1.227c3.767-14.394,9.09-31.892,25.335-64.644
		c8.848-17.8,19.756-36.768,37.74-57.732c0.938-0.971,1.825-1.995,2.665-3.078c1.522-1.713,2.645-3.486,3.406-5.277
		C450.961,153.201,437.393,116.689,405.646,92.116z"/>
	<path class="st0" d="M311.775,58.786c15.95,4.24,32.325-5.257,36.565-21.213c4.24-15.949-5.257-32.325-21.213-36.565
		c-15.949-4.234-32.325,5.257-36.559,21.213C286.323,38.17,295.813,54.54,311.775,58.786z"/>
	<path class="st0" d="M379.196,60.657c12.017,3.19,24.343-3.964,27.54-15.975c3.19-12.012-3.958-24.344-15.969-27.541
		c-12.017-3.196-24.35,3.958-27.547,15.976C360.03,45.134,367.184,57.467,379.196,60.657z"/>
	<path class="st0" d="M426.564,84.987c11.303,3.006,22.9-3.721,25.913-15.037c3-11.302-3.721-22.906-15.037-25.912
		c-11.303-3.006-22.906,3.721-25.92,15.03C408.515,70.377,415.249,81.982,426.564,84.987z"/>
	<path class="st0" d="M468.091,87.803c-10.101-2.684-20.458,3.321-23.149,13.429c-2.678,10.095,3.334,20.452,13.429,23.136
		c10.095,2.684,20.452-3.328,23.136-13.423C484.198,100.852,478.186,90.488,468.091,87.803z"/>
</g>
</svg>